<?xml version="1.0" standalone="no"?>
<!DOCTYPE svg PUBLIC "-//W3C//DTD SVG 20010904//EN"
 "http://www.w3.org/TR/2001/REC-SVG-20010904/DTD/svg10.dtd">
<svg version="1.0" xmlns="http://www.w3.org/2000/svg"
 width="700.000000pt" height="700.000000pt" viewBox="0 0 700.000000 700.000000"
 preserveAspectRatio="xMidYMid meet">
<metadata>
Created by potrace 1.11, written by Peter Selinger 2001-2013
</metadata>
<g transform="translate(0.000000,700.000000) scale(0.100000,-0.100000)"
fill="#000000" stroke="none">
<path d="M0 3500 l0 -3000 3500 0 3500 0 0 3000 0 3000 -3500 0 -3500 0 0
-3000z m6327 2326 c4 -3 7 -1051 7 -2327 1 -2171 0 -2322 -16 -2328 -12 -4
-5587 -6 -5643 -2 -7 1 -9 778 -8 2313 1 1272 2 2322 2 2333 1 20 8 20 2826
19 1554 0 2828 -4 2832 -8z"/>
<path d="M1830 4665 l-205 -205 483 -483 483 -484 -413 -411 c-227 -226 -444
-441 -481 -478 l-68 -67 208 -209 208 -208 688 687 687 687 -687 688 c-378
379 -690 688 -693 688 -3 0 -97 -92 -210 -205z"/>
<path d="M3378 2493 c-3 -7 -2 -595 1 -644 1 -14 91 -16 976 -16 536 0 975 3
976 6 0 3 2 153 2 334 l2 327 -977 0 c-537 0 -978 -3 -980 -7z"/>
</g>
</svg>
